<svg width="93" height="37" viewBox="0 0 93 37" fill="none" xmlns="http://www.w3.org/2000/svg">
<rect x="0.5" y="0.5" width="92" height="36" rx="7.5" fill="#F5F5F5"/>
<rect x="0.5" y="0.5" width="92" height="36" rx="7.5" stroke="#E5E5E5"/>
<path d="M28 14.5L20 22.5" stroke="#262626" stroke-width="1.5" stroke-linecap="round" stroke-linejoin="round"/>
<path d="M20 14.5L28 22.5" stroke="#262626" stroke-width="1.5" stroke-linecap="round" stroke-linejoin="round"/>
<path d="M43.5942 24.21C42.5862 24.21 41.7276 23.9907 41.0182 23.552C40.3089 23.1087 39.7652 22.4927 39.3872 21.704C39.0139 20.9153 38.8272 20.0007 38.8272 18.96C38.8272 17.9193 39.0139 17.0047 39.3872 16.216C39.7652 15.4273 40.3089 14.8137 41.0182 14.375C41.7276 13.9317 42.5862 13.71 43.5942 13.71C44.7562 13.71 45.7176 14.004 46.4782 14.592C47.2436 15.18 47.7756 15.971 48.0742 16.965L46.5902 17.364C46.3942 16.6593 46.0442 16.1063 45.5402 15.705C45.0409 15.3037 44.3922 15.103 43.5942 15.103C42.8802 15.103 42.2852 15.264 41.8092 15.586C41.3332 15.908 40.9739 16.3583 40.7312 16.937C40.4932 17.5157 40.3742 18.19 40.3742 18.96C40.3696 19.73 40.4862 20.4043 40.7242 20.983C40.9669 21.5617 41.3262 22.012 41.8022 22.334C42.2829 22.656 42.8802 22.817 43.5942 22.817C44.3922 22.817 45.0409 22.6163 45.5402 22.215C46.0442 21.809 46.3942 21.256 46.5902 20.556L48.0742 20.955C47.7756 21.949 47.2436 22.74 46.4782 23.328C45.7176 23.916 44.7562 24.21 43.5942 24.21ZM49.7538 24V13.71H51.2168V24H49.7538ZM56.6019 24.21C55.8459 24.21 55.1902 24.0397 54.6349 23.699C54.0795 23.3583 53.6502 22.8893 53.3469 22.292C53.0482 21.69 52.8989 20.997 52.8989 20.213C52.8989 19.4243 53.0529 18.7313 53.3609 18.134C53.6689 17.532 54.1005 17.0653 54.6559 16.734C55.2112 16.398 55.8599 16.23 56.6019 16.23C57.3579 16.23 58.0135 16.4003 58.5689 16.741C59.1242 17.0817 59.5535 17.5507 59.8569 18.148C60.1602 18.7453 60.3119 19.4337 60.3119 20.213C60.3119 21.0017 60.1579 21.697 59.8499 22.299C59.5465 22.8963 59.1172 23.3653 58.5619 23.706C58.0065 24.042 57.3532 24.21 56.6019 24.21ZM56.6019 22.831C57.3252 22.831 57.8642 22.5883 58.2189 22.103C58.5782 21.613 58.7579 20.983 58.7579 20.213C58.7579 19.4243 58.5759 18.7943 58.2119 18.323C57.8525 17.847 57.3159 17.609 56.6019 17.609C56.1119 17.609 55.7082 17.721 55.3909 17.945C55.0735 18.1643 54.8379 18.47 54.6839 18.862C54.5299 19.2493 54.4529 19.6997 54.4529 20.213C54.4529 21.0063 54.6349 21.641 54.9989 22.117C55.3629 22.593 55.8972 22.831 56.6019 22.831ZM64.6044 24.203C63.6851 24.203 62.9361 24 62.3574 23.594C61.7787 23.188 61.4241 22.6163 61.2934 21.879L62.7914 21.648C62.8847 22.04 63.0994 22.3503 63.4354 22.579C63.7761 22.803 64.1984 22.915 64.7024 22.915C65.1597 22.915 65.5167 22.8217 65.7734 22.635C66.0347 22.4483 66.1654 22.1917 66.1654 21.865C66.1654 21.6737 66.1187 21.5197 66.0254 21.403C65.9367 21.2817 65.7477 21.1673 65.4584 21.06C65.1691 20.9527 64.7281 20.8197 64.1354 20.661C63.4867 20.493 62.9711 20.3133 62.5884 20.122C62.2104 19.926 61.9397 19.6997 61.7764 19.443C61.6177 19.1817 61.5384 18.8667 61.5384 18.498C61.5384 18.0407 61.6597 17.6417 61.9024 17.301C62.1451 16.9603 62.4857 16.6967 62.9244 16.51C63.3677 16.3233 63.8857 16.23 64.4784 16.23C65.0571 16.23 65.5727 16.321 66.0254 16.503C66.4781 16.685 66.8444 16.944 67.1244 17.28C67.4044 17.6113 67.5724 18.001 67.6284 18.449L66.1304 18.722C66.0791 18.358 65.9087 18.071 65.6194 17.861C65.3301 17.651 64.9544 17.5367 64.4924 17.518C64.0491 17.4993 63.6897 17.574 63.4144 17.742C63.1391 17.9053 63.0014 18.1317 63.0014 18.421C63.0014 18.589 63.0527 18.7313 63.1554 18.848C63.2627 18.9647 63.4681 19.0767 63.7714 19.184C64.0747 19.2913 64.5227 19.4197 65.1154 19.569C65.7501 19.7323 66.2541 19.9143 66.6274 20.115C67.0007 20.311 67.2667 20.5467 67.4254 20.822C67.5887 21.0927 67.6704 21.4217 67.6704 21.809C67.6704 22.5557 67.3974 23.1413 66.8514 23.566C66.3101 23.9907 65.5611 24.203 64.6044 24.203ZM72.5723 24.21C71.8209 24.21 71.1606 24.0467 70.5913 23.72C70.0266 23.3887 69.5856 22.929 69.2683 22.341C68.9556 21.7483 68.7993 21.0623 68.7993 20.283C68.7993 19.457 68.9533 18.7407 69.2613 18.134C69.5739 17.5273 70.0079 17.0583 70.5633 16.727C71.1186 16.3957 71.7649 16.23 72.5023 16.23C73.2723 16.23 73.9279 16.4097 74.4693 16.769C75.0106 17.1237 75.4143 17.63 75.6803 18.288C75.9509 18.946 76.0583 19.7277 76.0023 20.633H74.5393V20.101C74.5299 19.2237 74.3619 18.575 74.0353 18.155C73.7133 17.735 73.2209 17.525 72.5583 17.525C71.8256 17.525 71.2749 17.756 70.9063 18.218C70.5376 18.68 70.3533 19.3473 70.3533 20.22C70.3533 21.0507 70.5376 21.6947 70.9063 22.152C71.2749 22.6047 71.8069 22.831 72.5023 22.831C72.9596 22.831 73.3539 22.7283 73.6853 22.523C74.0213 22.313 74.2826 22.0143 74.4693 21.627L75.9043 22.082C75.6103 22.7587 75.1646 23.2837 74.5673 23.657C73.9699 24.0257 73.3049 24.21 72.5723 24.21ZM69.8773 20.633V19.492H75.2743V20.633H69.8773Z" fill="#262626"/>
</svg>
