<svg width="28" height="28" viewBox="0 0 28 28" fill="none" xmlns="http://www.w3.org/2000/svg">
<path d="M11.666 11.668V5.83464C11.666 5.52522 11.7889 5.22847 12.0077 5.00968C12.2265 4.79089 12.5233 4.66797 12.8327 4.66797H15.166C15.4754 4.66797 15.7722 4.79089 15.991 5.00968C16.2098 5.22847 16.3327 5.52522 16.3327 5.83464V11.668" stroke="#525252" stroke-width="1.5" stroke-linecap="round" stroke-linejoin="round"/>
<path d="M16.334 7C18.1905 7 19.971 7.7375 21.2837 9.05025C22.5965 10.363 23.334 12.1435 23.334 14V17.5" stroke="#525252" stroke-width="1.5" stroke-linecap="round" stroke-linejoin="round"/>
<path d="M4.66602 17.5V14C4.66602 12.1435 5.40351 10.363 6.71627 9.05025C8.02902 7.7375 9.8095 7 11.666 7" stroke="#525252" stroke-width="1.5" stroke-linecap="round" stroke-linejoin="round"/>
<path d="M24.5007 17.5H3.50065C2.85632 17.5 2.33398 18.0223 2.33398 18.6667V21C2.33398 21.6443 2.85632 22.1667 3.50065 22.1667H24.5007C25.145 22.1667 25.6673 21.6443 25.6673 21V18.6667C25.6673 18.0223 25.145 17.5 24.5007 17.5Z" stroke="#525252" stroke-width="1.5" stroke-linecap="round" stroke-linejoin="round"/>
</svg>
