<svg width="22" height="22" viewBox="0 0 22 22" fill="none" xmlns="http://www.w3.org/2000/svg">
<path d="M13.75 19.25V11.9167C13.75 11.6736 13.6534 11.4404 13.4815 11.2685C13.3096 11.0966 13.0764 11 12.8333 11H9.16667C8.92355 11 8.69039 11.0966 8.51849 11.2685C8.34658 11.4404 8.25 11.6736 8.25 11.9167V19.25" stroke="#115E59" stroke-width="1.5" stroke-linecap="round" stroke-linejoin="round"/>
<path d="M2.75 9.16489C2.74994 8.8982 2.80806 8.63471 2.92031 8.39279C3.03255 8.15088 3.19623 7.93637 3.39992 7.76422L9.81658 2.26514C10.1475 1.98547 10.5667 1.83203 11 1.83203C11.4333 1.83203 11.8525 1.98547 12.1834 2.26514L18.6001 7.76422C18.8038 7.93637 18.9674 8.15088 19.0797 8.39279C19.1919 8.63471 19.2501 8.8982 19.25 9.16489V17.4149C19.25 17.9011 19.0568 18.3674 18.713 18.7112C18.3692 19.0551 17.9029 19.2482 17.4167 19.2482H4.58333C4.0971 19.2482 3.63079 19.0551 3.28697 18.7112C2.94315 18.3674 2.75 17.9011 2.75 17.4149V9.16489Z" stroke="#115E59" stroke-width="1.5" stroke-linecap="round" stroke-linejoin="round"/>
</svg>
