<svg width="101" height="32" viewBox="0 0 101 32" fill="none" xmlns="http://www.w3.org/2000/svg">
<rect width="33.981" height="32" rx="4.18692" fill="url(#paint0_linear_2944_891)"/>
<path d="M10.9727 19.5159C10.5096 18.9374 10.0454 18.3378 9.71699 17.6828C9.2267 16.7054 8.8955 15.6626 8.81082 14.557C8.6523 12.4845 9.16758 10.5844 10.4261 8.92507C11.9186 6.95721 13.874 5.65015 16.405 5.3105C18.1949 5.0704 19.8768 5.40222 21.4721 6.24976C22.5092 6.80078 23.4415 7.46499 24.1699 8.37087C24.3449 8.58837 24.5431 8.82643 24.7291 9.07674C25.1727 9.6743 24.9486 10.4508 24.3698 10.9244C23.9118 11.2991 23.3578 11.7535 22.868 12.1582C22.2543 12.6652 21.3467 12.6604 20.7227 12.1656C19.6995 11.3539 18.5012 10.4652 17.8832 10.0116C17.6376 9.8313 17.3007 9.83754 17.0601 10.0242L13.2514 12.9766C13.0912 13.1008 12.9965 13.2867 12.9938 13.4869C12.9825 14.3308 12.9556 16.6934 12.9831 18.3213C12.9891 18.6811 13.2897 18.9658 13.6569 18.9658C14.0879 18.9658 14.6638 18.9658 15.1742 18.9658C15.5497 18.9658 15.8536 18.6674 15.8521 18.2995C15.8502 17.8558 15.8476 17.4077 15.8488 16.9641C15.8497 16.6036 16.1462 16.3126 16.5141 16.3112C17.1265 16.3091 17.8116 16.3132 18.428 16.3155C18.8158 16.317 19.1268 16.6344 19.1234 17.0146C19.1195 17.4481 19.1233 17.9234 19.1283 18.2963C19.1332 18.6657 19.4466 18.9574 19.8233 18.9469L21.3121 18.9058C21.6799 18.8956 21.9728 18.6009 21.9728 18.2403C21.9728 17.9666 21.9728 17.6404 21.9728 17.3321C21.9728 16.8526 22.4769 16.5243 22.9357 16.6909C23.5441 16.9119 24.194 17.1294 24.7976 17.3512C25.2235 17.5077 25.3506 18.0256 25.0609 18.3692C22.7989 21.052 20.3815 24.141 17.9761 26.7053C17.7053 26.994 17.2398 26.9852 16.9775 26.6892C14.9066 24.3525 12.9236 21.9527 10.9727 19.5159Z" fill="white"/>
<path d="M45.287 15.1292C44.5216 15.1292 43.8088 14.9905 43.1487 14.7131C42.4981 14.4356 41.9288 14.0481 41.4409 13.5506C40.953 13.0531 40.5703 12.4695 40.2928 11.7998C40.0249 11.13 39.891 10.3981 39.891 9.60404C39.891 8.80994 40.0249 8.07803 40.2928 7.40831C40.5607 6.72902 40.9386 6.14541 41.4265 5.65747C41.9145 5.15996 42.4838 4.77726 43.1343 4.50937C43.7945 4.23191 44.5121 4.09319 45.287 4.09319C46.062 4.09319 46.7556 4.22235 47.3679 4.48067C47.9898 4.73899 48.516 5.08342 48.9466 5.51395C49.3771 5.94449 49.6833 6.42286 49.865 6.94907L47.8989 7.89625C47.7172 7.37961 47.3966 6.95386 46.9374 6.61899C46.4877 6.27457 45.9376 6.10235 45.287 6.10235C44.6556 6.10235 44.1007 6.25065 43.6223 6.54724C43.1439 6.84383 42.7708 7.25523 42.5029 7.78144C42.2446 8.29808 42.1154 8.90562 42.1154 9.60404C42.1154 10.3025 42.2446 10.9148 42.5029 11.441C42.7708 11.9672 43.1439 12.3786 43.6223 12.6752C44.1007 12.9718 44.6556 13.1201 45.287 13.1201C45.9376 13.1201 46.4877 12.9526 46.9374 12.6178C47.3966 12.2734 47.7172 11.8428 47.8989 11.3262L49.865 12.2734C49.6833 12.7996 49.3771 13.2779 48.9466 13.7085C48.516 14.139 47.9898 14.4834 47.3679 14.7418C46.7556 15.0001 46.062 15.1292 45.287 15.1292ZM50.5031 14.957L54.1196 4.2654H57.076L60.6924 14.957H58.2671L57.5495 12.7757H53.6317L52.9141 14.957H50.5031ZM54.2488 10.8382H56.9324L55.2964 5.78663H55.8992L54.2488 10.8382ZM61.8035 14.957V4.2654H63.5113L69.2518 11.8285L68.3333 12.0437V4.2654H70.5578V14.957H68.8356L63.1956 7.33655L64.028 7.12129V14.957H61.8035ZM75.325 14.957L71.6655 4.2654H74.1052L76.8606 12.8474H76.3727L79.1281 4.2654H81.5678L77.9083 14.957H75.325ZM81.3077 14.957L84.9242 4.2654H87.8805L91.497 14.957H89.0717L88.3541 12.7757H84.4363L83.7187 14.957H81.3077ZM85.0534 10.8382H87.737L86.101 5.78663H86.7037L85.0534 10.8382ZM96.3572 15.1292C95.6874 15.1292 95.056 15.0097 94.4628 14.7705C93.8792 14.5217 93.3721 14.1725 92.9416 13.7228C92.5206 13.2732 92.2049 12.7422 91.9944 12.1298L93.817 11.3118C94.0849 11.8954 94.4532 12.3547 94.922 12.6895C95.4004 13.0244 95.9266 13.1918 96.5007 13.1918C96.8068 13.1918 97.0699 13.144 97.29 13.0483C97.51 12.9526 97.6822 12.8235 97.8066 12.6608C97.931 12.4886 97.9932 12.2877 97.9932 12.0581C97.9932 11.8093 97.9166 11.5989 97.7636 11.4266C97.6105 11.2449 97.3713 11.1013 97.046 10.9961L94.9507 10.3072C94.0992 10.0298 93.4582 9.63753 93.0277 9.13045C92.5971 8.61381 92.3819 7.99671 92.3819 7.27915C92.3819 6.6477 92.535 6.09278 92.8411 5.61441C93.1568 5.13604 93.5922 4.76291 94.1471 4.49502C94.7116 4.22713 95.3574 4.09319 96.0845 4.09319C96.7255 4.09319 97.3187 4.20321 97.864 4.42326C98.4094 4.64332 98.8782 4.95426 99.2704 5.35609C99.6723 5.75792 99.9737 6.24108 100.175 6.80556L98.3663 7.62358C98.1654 7.12607 97.864 6.73859 97.4622 6.46113C97.0604 6.17411 96.6011 6.0306 96.0845 6.0306C95.7879 6.0306 95.5248 6.07843 95.2952 6.17411C95.0655 6.26978 94.8885 6.40851 94.7642 6.59029C94.6398 6.76251 94.5776 6.96342 94.5776 7.19304C94.5776 7.4418 94.6589 7.66185 94.8216 7.8532C94.9842 8.03498 95.2282 8.17849 95.5535 8.28373L97.6057 8.94389C98.4668 9.22134 99.1078 9.60882 99.5288 10.1063C99.9593 10.6038 100.175 11.2114 100.175 11.9289C100.175 12.5508 100.012 13.1057 99.6866 13.5937C99.3613 14.072 98.9117 14.45 98.3376 14.7274C97.7731 14.9953 97.113 15.1292 96.3572 15.1292Z" fill="#262626"/>
<path d="M39.7147 28.6914V17.9998H41.9391V22.6209H46.1009V17.9998H48.3254V28.6914H46.1009V24.5583H41.9391V28.6914H39.7147ZM55.5788 28.8636C54.7751 28.8636 54.0288 28.7249 53.34 28.4474C52.6511 28.17 52.0484 27.7825 51.5317 27.285C51.0247 26.7779 50.6276 26.1895 50.3406 25.5198C50.0536 24.8501 49.9101 24.1229 49.9101 23.3384C49.9101 22.5539 50.0488 21.8268 50.3262 21.157C50.6133 20.4873 51.0103 19.9037 51.5174 19.4062C52.034 18.9087 52.6368 18.5212 53.3256 18.2437C54.0145 17.9663 54.7655 17.8276 55.5788 17.8276C56.392 17.8276 57.143 17.9663 57.8319 18.2437C58.5208 18.5212 59.1187 18.9087 59.6258 19.4062C60.1424 19.9037 60.5395 20.4873 60.817 21.157C61.104 21.8268 61.2475 22.5539 61.2475 23.3384C61.2475 24.1229 61.104 24.8501 60.817 25.5198C60.5299 26.1895 60.1281 26.7779 59.6115 27.285C59.1044 27.7825 58.5064 28.17 57.8176 28.4474C57.1287 28.7249 56.3824 28.8636 55.5788 28.8636ZM55.5788 26.8545C56.0667 26.8545 56.5164 26.7683 56.9278 26.5961C57.3487 26.4239 57.7171 26.1847 58.0328 25.8786C58.3485 25.5628 58.5925 25.1897 58.7647 24.7592C58.9369 24.3286 59.0231 23.8551 59.0231 23.3384C59.0231 22.8218 58.9369 22.353 58.7647 21.932C58.5925 21.5015 58.3485 21.1283 58.0328 20.8126C57.7171 20.4969 57.3487 20.2577 56.9278 20.095C56.5164 19.9228 56.0667 19.8367 55.5788 19.8367C55.0908 19.8367 54.6364 19.9228 54.2154 20.095C53.804 20.2577 53.4404 20.4969 53.1247 20.8126C52.809 21.1283 52.565 21.5015 52.3928 21.932C52.2206 22.353 52.1345 22.8218 52.1345 23.3384C52.1345 23.8551 52.2206 24.3286 52.3928 24.7592C52.565 25.1897 52.809 25.5628 53.1247 25.8786C53.4404 26.1847 53.804 26.4239 54.2154 26.5961C54.6364 26.7683 55.0908 26.8545 55.5788 26.8545ZM62.8251 28.6914V17.9998H64.9778L68.9818 23.3097H67.9772L71.8664 17.9998H74.019V28.6914H71.7946V20.4538L72.6844 20.6547L68.5656 25.9647H68.2786L64.3033 20.6547L65.0495 20.4538V28.6914H62.8251ZM75.915 28.6914V17.9998H83.1049V19.9372H78.1394V22.3625H82.8179V24.2999H78.1394V26.754H83.1049V28.6914H75.915ZM88.2551 28.8636C87.5853 28.8636 86.9539 28.744 86.3607 28.5048C85.7771 28.2561 85.27 27.9069 84.8395 27.4572C84.4185 27.0075 84.1028 26.4765 83.8923 25.8642L85.7149 25.0462C85.9828 25.6298 86.3511 26.0891 86.8199 26.4239C87.2983 26.7588 87.8245 26.9262 88.3986 26.9262C88.7047 26.9262 88.9678 26.8784 89.1879 26.7827C89.4079 26.687 89.5802 26.5579 89.7045 26.3952C89.8289 26.223 89.8911 26.0221 89.8911 25.7925C89.8911 25.5437 89.8146 25.3332 89.6615 25.161C89.5084 24.9792 89.2692 24.8357 88.9439 24.7305L86.8486 24.0416C85.9971 23.7642 85.3561 23.3719 84.9256 22.8648C84.4951 22.3482 84.2798 21.7311 84.2798 21.0135C84.2798 20.3821 84.4329 19.8272 84.739 19.3488C85.0548 18.8704 85.4901 18.4973 86.045 18.2294C86.6095 17.9615 87.2553 17.8276 87.9824 17.8276C88.6234 17.8276 89.2166 17.9376 89.7619 18.1576C90.3073 18.3777 90.7761 18.6886 91.1684 19.0905C91.5702 19.4923 91.8716 19.9755 92.0725 20.5399L90.2642 21.358C90.0633 20.8604 89.7619 20.473 89.3601 20.1955C88.9583 19.9085 88.499 19.765 87.9824 19.765C87.6858 19.765 87.4227 19.8128 87.1931 19.9085C86.9635 20.0042 86.7865 20.1429 86.6621 20.3247C86.5377 20.4969 86.4755 20.6978 86.4755 20.9274C86.4755 21.1762 86.5568 21.3962 86.7195 21.5876C86.8821 21.7694 87.1261 21.9129 87.4514 22.0181L89.5036 22.6783C90.3647 22.9557 91.0057 23.3432 91.4267 23.8407C91.8572 24.3382 92.0725 24.9457 92.0725 25.6633C92.0725 26.2852 91.9098 26.8401 91.5845 27.328C91.2592 27.8064 90.8096 28.1843 90.2355 28.4618C89.671 28.7297 89.0109 28.8636 88.2551 28.8636Z" fill="#262626"/>
<defs>
<linearGradient id="paint0_linear_2944_891" x1="16.9905" y1="0" x2="16.9905" y2="32" gradientUnits="userSpaceOnUse">
<stop stop-color="#5B21B6"/>
<stop offset="1" stop-color="#4C1D95"/>
</linearGradient>
</defs>
</svg>
