<svg width="28" height="28" viewBox="0 0 28 28" fill="none" xmlns="http://www.w3.org/2000/svg">
<path d="M23.3334 11.6654C23.3334 17.4905 16.8712 23.5572 14.7012 25.4309C14.4991 25.5829 14.253 25.6651 14.0001 25.6651C13.7471 25.6651 13.5011 25.5829 13.2989 25.4309C11.1289 23.5572 4.66675 17.4905 4.66675 11.6654C4.66675 9.19001 5.65008 6.81604 7.40042 5.0657C9.15076 3.31536 11.5247 2.33203 14.0001 2.33203C16.4754 2.33203 18.8494 3.31536 20.5997 5.0657C22.3501 6.81604 23.3334 9.19001 23.3334 11.6654Z" stroke="#525252" stroke-width="1.5" stroke-linecap="round" stroke-linejoin="round"/>
<path d="M14 15.168C15.933 15.168 17.5 13.601 17.5 11.668C17.5 9.73497 15.933 8.16797 14 8.16797C12.067 8.16797 10.5 9.73497 10.5 11.668C10.5 13.601 12.067 15.168 14 15.168Z" stroke="#525252" stroke-width="1.5" stroke-linecap="round" stroke-linejoin="round"/>
</svg>
