<svg width="28" height="28" viewBox="0 0 28 28" fill="none" xmlns="http://www.w3.org/2000/svg">
<path d="M9.33333 3.5H5.83333C5.21449 3.5 4.621 3.74583 4.18342 4.18342C3.74583 4.621 3.5 5.21449 3.5 5.83333V9.33333" stroke="#525252" stroke-width="1.5" stroke-linecap="round" stroke-linejoin="round"/>
<path d="M24.5003 9.33333V5.83333C24.5003 5.21449 24.2545 4.621 23.8169 4.18342C23.3793 3.74583 22.7858 3.5 22.167 3.5H18.667" stroke="#525252" stroke-width="1.5" stroke-linecap="round" stroke-linejoin="round"/>
<path d="M3.5 18.668V22.168C3.5 22.7868 3.74583 23.3803 4.18342 23.8179C4.621 24.2555 5.21449 24.5013 5.83333 24.5013H9.33333" stroke="#525252" stroke-width="1.5" stroke-linecap="round" stroke-linejoin="round"/>
<path d="M18.667 24.5013H22.167C22.7858 24.5013 23.3793 24.2555 23.8169 23.8179C24.2545 23.3803 24.5003 22.7868 24.5003 22.168V18.668" stroke="#525252" stroke-width="1.5" stroke-linecap="round" stroke-linejoin="round"/>
</svg>
