<svg width="28" height="28" viewBox="0 0 28 28" fill="none" xmlns="http://www.w3.org/2000/svg">
<path d="M9.33333 3.5V7C9.33333 7.61884 9.0875 8.21233 8.64992 8.64992C8.21233 9.0875 7.61884 9.33333 7 9.33333H3.5" stroke="#525252" stroke-width="1.5" stroke-linecap="round" stroke-linejoin="round"/>
<path d="M24.5003 9.33333H21.0003C20.3815 9.33333 19.788 9.0875 19.3504 8.64992C18.9128 8.21233 18.667 7.61884 18.667 7V3.5" stroke="#525252" stroke-width="1.5" stroke-linecap="round" stroke-linejoin="round"/>
<path d="M3.5 18.668H7C7.61884 18.668 8.21233 18.9138 8.64992 19.3514C9.0875 19.789 9.33333 20.3825 9.33333 21.0013V24.5013" stroke="#525252" stroke-width="1.5" stroke-linecap="round" stroke-linejoin="round"/>
<path d="M18.667 24.5013V21.0013C18.667 20.3825 18.9128 19.789 19.3504 19.3514C19.788 18.9138 20.3815 18.668 21.0003 18.668H24.5003" stroke="#525252" stroke-width="1.5" stroke-linecap="round" stroke-linejoin="round"/>
</svg>
