<svg width="24" height="24" viewBox="0 0 24 24" fill="none" xmlns="http://www.w3.org/2000/svg">
<path d="M22 14C22 16.1217 21.1571 18.1566 19.6569 19.6569C18.1566 21.1571 16.1217 22 14 22" stroke="#525252" stroke-width="1.5" stroke-linecap="round" stroke-linejoin="round"/>
<path d="M17.8674 10.3913L17.766 9.39648C17.7122 8.86878 17.4509 8.38407 17.0398 8.04897C16.6286 7.71388 16.1011 7.55585 15.5734 7.60965C15.0457 7.66345 14.561 7.92467 14.2259 8.33585C13.8908 8.74703 13.7328 9.27449 13.7866 9.80219" stroke="#525252" stroke-width="1.5" stroke-linecap="round" stroke-linejoin="round"/>
<path d="M13.7866 9.80148L13.6852 8.80664C13.6314 8.27894 13.3701 7.79423 12.959 7.45913C12.5478 7.12403 12.0203 6.966 11.4926 7.0198C10.9649 7.0736 10.4802 7.33483 10.1451 7.74601C9.81001 8.15719 9.65198 8.68464 9.70578 9.21234L9.80721 10.2072" stroke="#525252" stroke-width="1.5" stroke-linecap="round" stroke-linejoin="round"/>
<path d="M9.75643 9.71187L9.19858 4.24023C9.14478 3.71253 8.88356 3.22782 8.47238 2.89272C8.0612 2.55763 7.53374 2.3996 7.00604 2.4534C6.47835 2.5072 5.99363 2.76842 5.65854 3.1796C5.32344 3.59078 5.16541 4.11824 5.21921 4.64594L6.23347 14.5944" stroke="#525252" stroke-width="1.5" stroke-linecap="round" stroke-linejoin="round"/>
<path d="M17.8673 10.3913C17.8135 9.86362 17.9716 9.33616 18.3067 8.92498C18.6418 8.5138 19.1265 8.25257 19.6542 8.19877C20.1819 8.14497 20.7093 8.30301 21.1205 8.6381C21.5317 8.9732 21.7929 9.45791 21.8467 9.98561L22.151 12.9701C22.3662 15.0809 21.7341 17.1908 20.3937 18.8355C19.0533 20.4802 17.1144 21.5251 15.0037 21.7403L13.014 21.9431C10.2284 22.2271 8.44995 21.544 6.81752 20.2228L2.87095 17.0065C2.49001 16.6623 2.25602 16.1848 2.21744 15.6728C2.17885 15.1608 2.33862 14.6537 2.66366 14.2563C2.9887 13.8589 3.45412 13.6017 3.96356 13.5379C4.47299 13.4742 4.98742 13.6089 5.40033 13.914L7.32977 15.4864" stroke="#525252" stroke-width="1.5" stroke-linecap="round" stroke-linejoin="round"/>
<path d="M11 1.32213C12.5 0.759766 15 0.75982 16.5 2.75993" stroke="#525252" stroke-width="1.5" stroke-linecap="round"/>
</svg>
