<svg width="28" height="28" viewBox="0 0 28 28" fill="none" xmlns="http://www.w3.org/2000/svg">
<path d="M23.3332 11.6654C23.3332 17.4905 16.871 23.5572 14.701 25.4309C14.4988 25.5829 14.2528 25.6651 13.9998 25.6651C13.7469 25.6651 13.5008 25.5829 13.2987 25.4309C11.1287 23.5572 4.6665 17.4905 4.6665 11.6654C4.6665 9.19001 5.64983 6.81604 7.40017 5.0657C9.15051 3.31536 11.5245 2.33203 13.9998 2.33203C16.4752 2.33203 18.8492 3.31536 20.5995 5.0657C22.3498 6.81604 23.3332 9.19001 23.3332 11.6654Z" fill="#171717"/>
<path d="M14 15.168C15.933 15.168 17.5 13.601 17.5 11.668C17.5 9.73497 15.933 8.16797 14 8.16797C12.067 8.16797 10.5 9.73497 10.5 11.668C10.5 13.601 12.067 15.168 14 15.168Z" fill="#E9E9E9" stroke="#525252" stroke-width="1.5" stroke-linecap="round" stroke-linejoin="round"/>
</svg>
